<svg xmlns="http://www.w3.org/2000/svg" width="35" height="35.003" viewBox="0 0 35 35.003">
  <g id="Group_1297" data-name="Group 1297" transform="translate(-545.786 -1201.458)">
    <g id="Group_1148" data-name="Group 1148" transform="translate(553.572 1215.096)">
      <path id="Path_869" data-name="Path 869" d="M556.986,1217.822v-.171a1.79,1.79,0,0,0,.749-.632,1.771,1.771,0,0,0,.249-.981,1.639,1.639,0,0,0-.308-.971,2.1,2.1,0,0,0-.891-.7,3.312,3.312,0,0,0-1.358-.259,2.991,2.991,0,0,0-1.385.308,2.368,2.368,0,0,0-.938.823,1.945,1.945,0,0,0-.319,1.118h1.261a1.259,1.259,0,0,1,.393-.881,1.6,1.6,0,0,1,1.947-.058,1,1,0,0,1,.323.759,1.064,1.064,0,0,1-.3.811,1.244,1.244,0,0,1-.891.28h-.93v.988l.865.025a1.646,1.646,0,0,1,1.082.349,1.09,1.09,0,0,1,.393.861,1.14,1.14,0,0,1-.412.923,1.644,1.644,0,0,1-1.1.35,1.7,1.7,0,0,1-.8-.185,1.438,1.438,0,0,1-.557-.5,1.3,1.3,0,0,1-.206-.683h-1.284a2.241,2.241,0,0,0,.329,1.234,2.292,2.292,0,0,0,.992.865,3.5,3.5,0,0,0,1.533.312,3.223,3.223,0,0,0,2.074-.6,1.952,1.952,0,0,0,.749-1.607A1.782,1.782,0,0,0,556.986,1217.822Z" transform="translate(-552.572 -1214.096)" fill="#fff"/>
      <path id="Path_870" data-name="Path 870" d="M563.731,1217.106a2.814,2.814,0,0,0-1.421-.33,2.214,2.214,0,0,0-1.013.239,1.517,1.517,0,0,0-.652.545h-.128v-.148a2.978,2.978,0,0,1,.426-1.646,1.317,1.317,0,0,1,1.157-.663,1.439,1.439,0,0,1,.946.293,1.264,1.264,0,0,1,.434.775h1.282a2.281,2.281,0,0,0-.356-1.028,2.141,2.141,0,0,0-.864-.759,2.92,2.92,0,0,0-1.348-.287,3.128,3.128,0,0,0-1.14.206,2.174,2.174,0,0,0-.843.578,4.576,4.576,0,0,0-.9,3.163,4.256,4.256,0,0,0,.893,3.064,2.21,2.21,0,0,0,.837.537,3.126,3.126,0,0,0,1.093.175,2.881,2.881,0,0,0,1.516-.371,2.387,2.387,0,0,0,.918-.954,2.659,2.659,0,0,0,.3-1.235,2.778,2.778,0,0,0-.282-1.263A2.086,2.086,0,0,0,563.731,1217.106Zm-.508,3.3a1.376,1.376,0,0,1-1.1.428,1.349,1.349,0,0,1-.722-.206,1.451,1.451,0,0,1-.514-.547,1.679,1.679,0,0,1-.206-.823,1.591,1.591,0,0,1,.411-1.125,1.561,1.561,0,0,1,2.138-.023,1.679,1.679,0,0,1,.365,1.14A1.7,1.7,0,0,1,563.223,1220.41Z" transform="translate(-552.572 -1214.096)" fill="#fff"/>
      <path id="Path_871" data-name="Path 871" d="M571.643,1215.976a3.087,3.087,0,0,0-1.039-1.381,2.7,2.7,0,0,0-1.628-.5,2.786,2.786,0,0,0-1.666.494,3.046,3.046,0,0,0-1.046,1.379,5.452,5.452,0,0,0-.356,2.033,5.15,5.15,0,0,0,.356,1.967,3.055,3.055,0,0,0,1.046,1.358,2.786,2.786,0,0,0,1.666.494,2.714,2.714,0,0,0,1.628-.494,3.058,3.058,0,0,0,1.039-1.358A5.151,5.151,0,0,0,572,1218,5.378,5.378,0,0,0,571.643,1215.976Zm-1.422,3.973,0,.011a1.511,1.511,0,0,1-2.525,0,3.738,3.738,0,0,1-.411-1.953,4,4,0,0,1,.411-2.021,1.493,1.493,0,0,1,2.529,0,3.966,3.966,0,0,1,.412,2.013A3.744,3.744,0,0,1,570.221,1219.949Z" transform="translate(-552.572 -1214.096)" fill="#fff"/>
    </g>
    <path id="Path_872" data-name="Path 872" d="M576.5,1207.477a.512.512,0,0,0-.773.672h0a16.447,16.447,0,0,1,3.617,7.1,11.914,11.914,0,0,0-3.807-2.891,21.474,21.474,0,0,0-4.086-1.552,21.487,21.487,0,0,0-1.562-4.095,11.89,11.89,0,0,0-2.892-3.8,16.431,16.431,0,0,1,7.073,3.59.513.513,0,0,0,.723-.052h0a.512.512,0,0,0-.052-.723,17.5,17.5,0,0,0-28.95,13.238v.03a17.5,17.5,0,0,0,4.288,11.445.512.512,0,1,0,.773-.672h0a16.464,16.464,0,0,1-3.613-7.1,11.959,11.959,0,0,0,3.806,2.891,21.555,21.555,0,0,0,4.091,1.557,21.666,21.666,0,0,0,1.558,4.095,11.971,11.971,0,0,0,2.891,3.806,16.466,16.466,0,0,1-7.1-3.618.512.512,0,0,0-.672.773,17.506,17.506,0,0,0,11.445,4.288h.03a17.5,17.5,0,0,0,17.5-17.5v-.03A17.48,17.48,0,0,0,576.5,1207.477Zm-24.863-.165h0a16.364,16.364,0,0,1,7.961-4.413,12.034,12.034,0,0,0-2.978,3.954l-.567-1.7a.513.513,0,1,0-.973.325l.98,2.932a.513.513,0,0,0,.486.35.525.525,0,0,0,.162-.026l2.932-.98a.512.512,0,0,0-.322-.973h0l-1.819.608c1.542-3.132,3.616-4.9,5.79-4.9,2.121,0,4.136,1.667,5.685,4.7a19.893,19.893,0,0,1,1.321,3.335,31.818,31.818,0,0,0-7.006-.755,27.5,27.5,0,0,0-12.245,2.6,11.918,11.918,0,0,0-3.818,2.9A16.363,16.363,0,0,1,551.633,1207.312Zm23.3,23.3a16.386,16.386,0,0,1-7.954,4.411,11.942,11.942,0,0,0,2.9-3.811,21.487,21.487,0,0,0,1.562-4.1c3.606-.99,6.354-2.572,7.907-4.466A16.368,16.368,0,0,1,574.936,1230.611Zm2.45-7.454a16.448,16.448,0,0,1-5.653,2.807l-1.113.276,0-.012c-.023.094-.038.189-.063.283a.578.578,0,0,0-.029.106,20.633,20.633,0,0,1-1.554,4.122c-1.548,3.028-3.567,4.7-5.685,4.7s-4.136-1.667-5.685-4.7a20.16,20.16,0,0,1-1.322-3.336,31.966,31.966,0,0,0,7.006.755,33.753,33.753,0,0,0,3.588-.191l-1.12,1.567a.513.513,0,0,0,.119.715h0a.516.516,0,0,0,.716-.117l1.8-2.515a.511.511,0,0,0,.1-.284.47.47,0,0,0,0-.094.509.509,0,0,0-.271-.382l-2.453-1.753a.512.512,0,1,0-.6.833l1.439,1.029a32.838,32.838,0,0,1-3.309.167,56.965,56.965,0,0,1-7.318-.857l-1.135-.31h0a20.18,20.18,0,0,1-3.333-1.321c-3.029-1.549-4.7-3.567-4.7-5.685s1.667-4.136,4.7-5.685a19.894,19.894,0,0,1,3.338-1.323h0l1.138-.313a31.667,31.667,0,0,1,14.631,0l1.119.316a19.891,19.891,0,0,1,3.336,1.322c3.028,1.548,4.7,3.568,4.7,5.685A5.577,5.577,0,0,1,577.386,1223.157Z" transform="translate(0 0)" fill="#fff"/>
  </g>
</svg>
