<svg xmlns="http://www.w3.org/2000/svg" width="35" height="35" viewBox="0 0 35 35">
  <g id="Group_1298" data-name="Group 1298" transform="translate(-1192 -26)">
    <g id="Group_35" data-name="Group 35" transform="translate(1192 26)">
      <path id="Path_45" data-name="Path 45" d="M-10.3-20.594A17.383,17.383,0,0,1-22.671-25.72,17.385,17.385,0,0,1-27.8-38.094a17.385,17.385,0,0,1,5.126-12.374A17.385,17.385,0,0,1-10.3-55.594h0A17.408,17.408,0,0,1,2.072-50.463,17.405,17.405,0,0,1,7.2-38.095,17.386,17.386,0,0,1,2.077-25.72,17.383,17.383,0,0,1-10.3-20.594m0-33.866A16.26,16.26,0,0,0-21.87-49.667a16.259,16.259,0,0,0-4.794,11.573A16.259,16.259,0,0,0-21.87-26.521,16.259,16.259,0,0,0-10.3-21.728,16.259,16.259,0,0,0,1.276-26.521,16.259,16.259,0,0,0,6.069-38.094a16.279,16.279,0,0,0-4.8-11.567A16.277,16.277,0,0,0-10.3-54.46Z" transform="translate(27.797 55.594)" fill="#efefef"/>
    </g>
    <path id="Path_908" data-name="Path 908" d="M614.06,274.2a6.073,6.073,0,0,1,8.29-8.874,5.857,5.857,0,0,1,1.976,4.4,5.978,5.978,0,0,1-1.861,4.465c.067.046.12.085.176.119a11.181,11.181,0,0,1,5.286,7.67,11.857,11.857,0,0,1,.184,2.214,2.4,2.4,0,0,1-2.323,2.3c-.068,0-.136,0-.2,0q-7.321,0-14.643,0a2.393,2.393,0,0,1-2.463-1.887,4.419,4.419,0,0,1-.056-1.2,11.3,11.3,0,0,1,3.387-7.5,11.684,11.684,0,0,1,2.031-1.576Zm4.205,10.784h3.395c1.329,0,2.659,0,3.988,0a.915.915,0,0,0,.96-.947,9.838,9.838,0,0,0-1.88-5.79,10.806,10.806,0,0,0-3.5-3.023.271.271,0,0,0-.215.01,6.087,6.087,0,0,1-5.5-.007.223.223,0,0,0-.257.014c-.215.143-.439.274-.657.414a9.764,9.764,0,0,0-4.67,7.852,3.141,3.141,0,0,0,.006.734.914.914,0,0,0,.984.744Zm0-10.622a4.548,4.548,0,1,0-4.543-4.573A4.538,4.538,0,0,0,618.26,274.365Z" transform="translate(591.593 -232.734)" fill="#fff"/>
  </g>
</svg>
