<svg xmlns="http://www.w3.org/2000/svg" width="35" height="35" viewBox="0 0 35 35">
  <g id="Group_1296" data-name="Group 1296" transform="translate(-1192 -45)">
    <g id="Group_35" data-name="Group 35" transform="translate(1192 45)">
      <path id="Path_45" data-name="Path 45" d="M-10.3-20.594A17.383,17.383,0,0,1-22.671-25.72,17.385,17.385,0,0,1-27.8-38.094a17.385,17.385,0,0,1,5.126-12.374A17.385,17.385,0,0,1-10.3-55.594h0A17.408,17.408,0,0,1,2.072-50.463,17.405,17.405,0,0,1,7.2-38.095,17.386,17.386,0,0,1,2.077-25.72,17.383,17.383,0,0,1-10.3-20.594m0-33.866A16.26,16.26,0,0,0-21.87-49.667a16.259,16.259,0,0,0-4.794,11.573A16.259,16.259,0,0,0-21.87-26.521,16.259,16.259,0,0,0-10.3-21.728,16.259,16.259,0,0,0,1.276-26.521,16.259,16.259,0,0,0,6.069-38.094a16.279,16.279,0,0,0-4.8-11.567A16.277,16.277,0,0,0-10.3-54.46Z" transform="translate(27.797 55.594)" fill="#efefef"/>
    </g>
    <g id="Group_36" data-name="Group 36" transform="translate(1203.268 55.001)">
      <path id="Path_46" data-name="Path 46" d="M-4.171-1.919a1.5,1.5,0,0,0-.674-.673l-12-6a1.5,1.5,0,0,0-2.012.671,1.494,1.494,0,0,0-.158.671v12a1.5,1.5,0,0,0,1.5,1.5,1.494,1.494,0,0,0,.671-.158l12-6a1.5,1.5,0,0,0,.674-2.011M-17.137,4.291V-6.869L-5.8-1.25Z" transform="translate(19.012 8.75)" fill="#efefef"/>
    </g>
  </g>
</svg>
